<?xml version="1.0" encoding="UTF-8"?>
<svg xmlns="http://www.w3.org/2000/svg" width="256" height="256" viewBox="0 0 256 256">
    <defs>
        <filter id="purple-shine" x="-20%" y="-20%" width="140%" height="140%">
            <feDropShadow dx="0" dy="0" stdDeviation="2" flood-color="#6366f1" flood-opacity="0.8" />
        </filter>
    </defs>
    <g stroke-width="5pt" id="grid" filter="url(#purple-shine)">
        <path stroke="#181c24" fill-opacity="0" d="M128 32 L208 80 L208 176 L128 224 L48 176 L48 80 Z" />
        <g fill="#181c24">
            <circle cx="128" cy="32" r="10" />
            <circle cx="208" cy="80" r="10" />
            <circle cx="208" cy="176" r="10" />
            <circle cx="128" cy="224" r="10" />
            <circle cx="48" cy="176" r="10" />
            <circle cx="48" cy="80" r="10" />
        </g>
    </g>
    <g stroke-width="5pt" stroke="#181c24" id="globe" filter="url(#purple-shine)">
        <circle cx="128" cy="128" r="48" fill-opacity="0" />
        <line x1="80" x2="176" y1="128" y2="128" />
        <path d="M86 100 Q128 120 170 100" fill-opacity="0" />
        <path d="M86 156 Q128 136 170 156" fill-opacity="0" />
        <path d="M128 80 Q108 95 108 128" fill-opacity="0" />
        <path d="M108 128 Q108 161 128 176" fill-opacity="0" />
        <path d="M128 80 Q148 95 148 128" fill-opacity="0" />
        <path d="M148 128 Q148 161 128 176" fill-opacity="0" />
    </g>
</svg>