<?xml version="1.0" standalone="no"?>
<!DOCTYPE svg PUBLIC "-//W3C//DTD SVG 20010904//EN"
 "http://www.w3.org/TR/2001/REC-SVG-20010904/DTD/svg10.dtd">
<svg version="1.0" xmlns="http://www.w3.org/2000/svg"
 width="640.000000pt" height="640.000000pt" viewBox="0 0 640.000000 640.000000"
 preserveAspectRatio="xMidYMid meet">

<g transform="translate(0.000000,640.000000) scale(0.100000,-0.100000)"
fill="#000000" stroke="none">
<path d="M0 3200 l0 -3200 3200 0 3200 0 0 3200 0 3200 -3200 0 -3200 0 0
-3200z m3298 2571 c41 -29 64 -73 67 -130 3 -44 5 -47 56 -78 30 -17 233 -135
452 -262 l398 -230 47 25 c116 63 242 -15 242 -149 0 -53 -29 -101 -83 -136
l-37 -24 0 -542 0 -542 40 -27 c133 -88 87 -289 -70 -304 -39 -3 -57 1 -96 23
l-49 27 -265 -154 c-146 -85 -348 -203 -450 -262 l-185 -108 -1 -49 c-1 -63
-41 -116 -106 -143 -104 -43 -217 33 -221 148 -2 52 58 12 -513 341 l-400 231
-37 -24 c-51 -34 -128 -35 -180 -3 -108 66 -97 231 17 285 l36 17 0 544 c0
535 0 544 -20 550 -30 9 -79 53 -95 86 -21 39 -19 103 5 148 45 89 176 116
245 51 l22 -21 219 129 c120 70 328 192 460 270 l242 143 4 52 c5 61 27 96 78
127 47 28 132 24 178 -9z m-313 -3391 c22 -9 48 -26 58 -38 25 -28 46 -89 47
-134 l0 -38 -59 0 -58 0 -7 40 c-8 52 -39 80 -88 80 -28 0 -46 -7 -63 -25 -25
-24 -25 -25 -25 -224 0 -195 1 -201 23 -227 19 -21 32 -27 66 -27 54 0 80 25
88 82 l6 41 54 0 c65 0 71 -9 53 -87 -16 -74 -67 -125 -140 -143 -108 -26
-210 14 -252 97 -22 46 -23 58 -23 263 0 204 1 217 23 257 52 98 180 134 297
83z m1026 0 c57 -29 99 -102 99 -171 0 -28 -1 -29 -54 -29 l-53 0 -7 39 c-8
49 -36 71 -93 71 -54 0 -83 -26 -83 -74 0 -50 32 -82 134 -132 103 -51 133
-75 152 -121 28 -66 12 -176 -34 -226 -50 -56 -156 -79 -243 -54 -84 25 -139
97 -139 184 l0 38 57 -1 c54 0 58 -2 61 -25 7 -59 13 -71 49 -85 71 -30 143
10 143 80 0 42 -32 72 -137 126 -138 70 -188 149 -164 256 16 69 53 111 121
135 64 23 132 19 191 -11z m-2861 -45 l0 -55 -110 0 -110 0 0 -95 0 -95 95 0
96 0 -3 -57 -3 -58 -90 -1 -90 -2 -3 -141 -3 -141 -59 0 -60 0 0 350 0 350
170 0 170 0 0 -55z m382 45 c54 -15 94 -53 112 -107 34 -100 11 -220 -53 -275
l-39 -33 59 -134 c32 -73 59 -135 59 -137 0 -2 -29 -4 -64 -4 l-63 0 -35 78
c-20 42 -46 101 -58 130 -21 48 -25 52 -56 52 l-34 0 0 -130 0 -130 -60 0 -60
0 0 350 0 350 128 0 c70 0 144 -5 164 -10z m588 -45 l0 -55 -110 0 -110 0 0
-90 0 -90 95 0 95 0 0 -55 0 -55 -95 0 -95 0 0 -95 0 -95 115 0 115 0 0 -55 0
-55 -177 0 -178 0 0 350 0 350 172 0 173 0 0 -55z m450 0 l0 -55 -110 0 -110
0 0 -90 0 -90 95 0 95 0 0 -55 0 -55 -95 0 -95 0 0 -95 0 -95 115 0 115 0 0
-55 0 -55 -180 0 -180 0 0 350 0 350 175 0 175 0 0 -55z m899 18 c35 -132 161
-646 161 -658 0 -3 -27 -5 -60 -5 l-59 0 -10 38 c-5 20 -12 49 -15 65 l-6 27
-95 0 c-76 0 -95 -3 -95 -15 0 -7 -5 -37 -11 -65 l-11 -50 -59 0 c-32 0 -59 4
-59 9 0 22 115 520 149 649 l12 42 74 0 74 0 10 -37z m1171 -18 l0 -55 -85 0
-85 0 0 -295 0 -295 -60 0 -60 0 0 295 0 295 -80 0 -80 0 0 55 0 55 225 0 225
0 0 -55z m420 0 l0 -55 -110 0 -111 0 3 -87 3 -88 93 -3 92 -3 0 -54 0 -55
-95 0 -95 0 0 -95 0 -95 115 0 115 0 0 -55 0 -55 -175 0 -175 0 0 350 0 350
170 0 170 0 0 -55z m435 29 c61 -32 89 -89 89 -183 0 -97 -16 -142 -64 -183
l-38 -33 53 -117 c78 -172 78 -158 2 -158 l-64 0 -59 130 c-57 129 -59 130
-91 130 l-33 0 0 -130 0 -130 -60 0 -60 0 0 351 0 350 143 -3 c120 -3 148 -6
182 -24z m-2902 -915 c47 -13 106 -63 123 -106 8 -18 14 -51 14 -73 l0 -40
-60 0 -60 0 0 33 c0 76 -106 112 -156 54 -24 -28 -24 -32 -24 -223 l0 -196 29
-29 c38 -38 91 -40 126 -4 22 21 25 33 25 90 0 64 0 65 -27 66 -59 3 -58 2
-58 53 l0 49 103 1 102 1 0 -118 c0 -125 -11 -170 -53 -215 -39 -42 -77 -55
-157 -56 -64 -1 -82 3 -120 26 -28 16 -55 43 -70 70 -25 42 -25 47 -25 263 0
207 1 222 22 261 44 82 160 123 266 93z m593 -30 c35 -17 55 -36 72 -67 46
-83 23 -267 -36 -302 -44 -25 -44 -22 9 -141 80 -179 80 -160 4 -157 l-66 3
-57 125 c-55 118 -60 125 -88 125 l-29 0 -3 -127 -3 -128 -59 0 -60 0 0 351 0
352 134 -5 c115 -4 140 -8 182 -29z m352 -321 l2 -348 -65 0 -65 0 0 350 0
351 63 -3 62 -3 3 -347z m442 329 c37 -16 79 -56 101 -97 19 -34 25 -347 9
-425 -14 -68 -63 -124 -126 -143 -23 -7 -97 -12 -168 -12 l-126 0 0 343 c0
189 3 347 8 351 13 14 264 -1 302 -17z"/>
<path d="M3046 5523 c-4 -5 -206 -125 -449 -268 l-442 -261 3 -32 c5 -49 -15
-97 -57 -135 -21 -19 -43 -36 -50 -38 -8 -3 -11 -64 -9 -227 l3 -222 183 106
182 106 36 77 c76 166 208 298 379 381 125 61 193 79 325 86 287 17 560 -111
729 -340 135 -183 191 -439 145 -662 -8 -42 -14 -78 -12 -80 2 -2 84 42 181
98 l177 101 0 289 0 288 -27 11 c-64 24 -103 83 -103 156 l-1 48 -425 245
c-234 135 -438 251 -454 259 -27 13 -32 13 -52 -7 -63 -59 -166 -56 -222 7
-21 23 -29 25 -40 14z"/>
<path d="M3105 4955 c-29 -31 -71 -90 -93 -133 -40 -78 -78 -180 -70 -188 10
-9 157 -23 248 -24 97 0 258 15 268 25 3 3 -2 29 -12 58 -33 94 -96 203 -149
261 -48 51 -56 56 -96 56 -39 0 -48 -5 -96 -55z"/>
<path d="M2957 4975 c-99 -34 -200 -98 -281 -178 l-71 -70 45 -19 c45 -19 175
-58 195 -58 5 0 22 36 37 79 32 92 88 192 134 239 38 38 31 39 -59 7z"/>
<path d="M3398 4955 c44 -50 100 -159 128 -248 l18 -58 35 6 c50 9 194 55 204
65 5 4 -8 26 -28 49 -79 87 -228 180 -343 214 l-53 16 39 -44z"/>
<path d="M2526 4587 c-35 -73 -59 -154 -71 -239 l-6 -48 178 0 179 0 12 121
c7 66 15 126 18 133 3 8 -19 18 -68 30 -40 9 -103 30 -141 46 l-67 28 -34 -71z"/>
<path d="M3762 4624 c-34 -13 -94 -31 -133 -40 -56 -13 -69 -19 -65 -32 11
-37 26 -150 26 -199 l0 -53 181 0 181 0 -7 56 c-13 104 -84 295 -109 293 -6 0
-39 -11 -74 -25z"/>
<path d="M2915 4527 c-11 -49 -25 -154 -25 -189 l0 -38 310 0 310 0 0 48 c0
26 -5 82 -12 125 l-11 77 -81 -7 c-102 -10 -330 -10 -418 -1 -65 7 -68 6 -73
-15z"/>
<path d="M2210 4350 l-165 -98 -3 -274 -2 -274 37 -25 c55 -36 77 -73 83 -136
l5 -55 451 -259 452 -260 37 25 c67 46 133 46 200 0 l36 -24 448 261 449 261
-5 37 c-7 56 31 120 89 151 l48 25 0 208 c0 114 -3 207 -6 207 -11 0 -399
-224 -402 -232 -13 -31 -111 -168 -150 -210 -302 -324 -792 -357 -1137 -77
-220 179 -342 476 -307 751 6 51 10 93 9 93 -1 1 -76 -42 -167 -95z"/>
<path d="M2455 4178 c14 -107 75 -285 104 -302 6 -4 40 4 75 18 35 14 92 32
126 40 34 8 64 17 66 19 3 2 -1 63 -8 136 l-12 131 -178 0 -178 0 5 -42z"/>
<path d="M2890 4178 c0 -24 5 -80 12 -126 l11 -83 86 8 c112 10 293 10 402 0
l87 -9 11 65 c6 35 11 91 11 125 l0 62 -310 0 -310 0 0 -42z"/>
<path d="M3586 4113 c-3 -60 -9 -120 -12 -135 -5 -24 -3 -28 22 -33 16 -3 77
-22 135 -41 58 -19 109 -34 113 -34 21 0 89 199 101 295 l7 55 -179 0 -180 0
-7 -107z"/>
<path d="M3010 3898 c-41 -6 -76 -11 -78 -12 -6 -6 40 -123 75 -188 42 -80
143 -195 179 -204 70 -18 208 157 269 340 8 27 14 50 13 51 -2 2 -43 8 -93 14
-106 13 -260 12 -365 -1z"/>
<path d="M2730 3842 c-131 -43 -128 -40 -79 -95 80 -92 195 -168 319 -212 l75
-26 -26 28 c-58 62 -121 182 -156 298 -12 40 -30 40 -133 7z"/>
<path d="M3530 3803 c-32 -97 -85 -195 -135 -249 -38 -40 -40 -45 -19 -40 133
34 285 128 383 239 41 46 40 46 -69 81 -144 46 -135 47 -160 -31z"/>
<path d="M1360 2169 l0 -111 66 4 c86 5 104 24 104 110 0 49 -4 63 -25 83 -20
21 -34 25 -85 25 l-60 0 0 -111z"/>
<path d="M3352 2090 c-18 -80 -32 -148 -32 -152 0 -5 30 -8 66 -8 l66 0 -7 38
c-3 20 -18 89 -33 152 l-28 115 -32 -145z"/>
<path d="M5290 2170 l0 -110 50 0 c60 0 94 15 109 47 25 54 5 152 -34 167 -9
3 -41 6 -71 6 l-54 0 0 -110z"/>
<path d="M2990 1231 c0 -66 4 -112 10 -116 19 -12 112 7 131 26 25 25 34 83
20 131 -14 46 -54 68 -121 68 l-40 0 0 -109z"/>
<path d="M3800 1095 l0 -235 50 0 c67 0 107 21 118 62 4 18 7 106 5 196 -2
154 -4 167 -24 189 -19 19 -32 23 -86 23 l-63 0 0 -235z"/>
</g>
</svg>
